<svg width="1289" height="1289" viewBox="0 0 1289 1289" fill="none" xmlns="http://www.w3.org/2000/svg">
<rect x="133" y="142" width="1028.78" height="1000" rx="20" fill="#BEF264"/>
<path d="M288.5 1017C283.833 1017 280.667 1014.17 279 1008.5C278.667 1007.5 278.5 1006 278.5 1004C278.5 1000 280.333 997.333 284 996C300.667 989 313 979 321 966C329 953 334.167 937 336.5 918C338.833 898.667 340 872.667 340 840V664C339.667 655.667 338.833 649 337.5 644C336.5 638.667 333.667 634.333 329 631C324.333 627.333 317.167 625.5 307.5 625.5H304.5C301.167 625.5 298.667 625 297 624C295.667 622.667 294.833 619.667 294.5 615C294.5 612 295.333 609.5 297 607.5C298.667 605.167 300.833 604 303.5 604C324.833 605 344.667 605.5 363 605.5C383.333 605.5 404.167 605 425.5 604C428.5 604 430.667 605.167 432 607.5C433.667 609.5 434.5 612 434.5 615C434.167 620 433 623 431 624C429.333 625 426.167 625.5 421.5 625.5C411.833 625.5 404.667 627.333 400 631C395.333 634.333 392.333 638.667 391 644C390 649 389.333 655.667 389 664V857C389 900 381.333 935.167 366 962.5C351 990.167 325.833 1008.33 290.5 1017H288.5ZM557.504 927C534.837 927 516.837 920.167 503.504 906.5C490.171 892.833 483.504 874.833 483.504 852.5V760C483.504 751.333 483.171 745 482.504 741C482.171 737 480.171 733.5 476.504 730.5C472.837 727.5 466.671 726 458.004 726C454.004 726 451.004 725.5 449.004 724.5C447.004 723.167 446.004 720.333 446.004 716C446.004 714 446.671 712.167 448.004 710.5C449.337 708.5 451.337 707.333 454.004 707C475.004 704 493.004 699.667 508.004 694C512.671 692.333 516.504 691.333 519.504 691H521.004C526.337 691 529.004 694.167 529.004 700.5V852C529.004 867.333 533.837 879.167 543.504 887.5C553.171 895.5 564.337 899.5 577.004 899.5C592.671 899.5 606.004 895.667 617.004 888C628.004 880.333 635.337 872.667 639.004 865V760C639.004 751.333 638.671 745 638.004 741C637.671 737 635.671 733.5 632.004 730.5C628.337 727.5 622.171 726 613.504 726C609.504 726 606.504 725.5 604.504 724.5C602.504 723.167 601.504 720.333 601.504 716C601.504 714 602.171 712.167 603.504 710.5C604.837 708.5 606.837 707.333 609.504 707C630.504 704 648.504 699.667 663.504 694C668.171 692.333 672.004 691.333 675.004 691H676.504C681.837 691 684.504 694.167 684.504 700.5V873.5C684.504 893.167 697.671 903 724.004 903C729.671 903 732.504 906.167 732.504 912.5C732.504 917.167 729.671 920 724.004 921L643.504 926.5C641.171 926.5 639.837 925.667 639.504 924C639.171 922.667 639.004 920.167 639.004 916.5V888.5H638.004C628.337 897.5 620.504 904.5 614.504 909.5C608.504 914.167 600.671 918.167 591.004 921.5C581.671 925.167 570.504 927 557.504 927ZM759.855 922.5C757.522 922.5 755.522 921.5 753.855 919.5C752.522 917.5 751.855 915.167 751.855 912.5C752.189 908.167 753.189 905.667 754.855 905C756.522 904 759.522 903.5 763.855 903.5C772.522 903.5 778.689 902 782.355 899C786.022 896 788.022 892.5 788.355 888.5C789.022 884.5 789.355 878.167 789.355 869.5V755C789.355 746.333 789.022 740 788.355 736C788.022 732 786.022 728.5 782.355 725.5C778.689 722.5 772.522 721 763.855 721C759.855 721 756.855 720.5 754.855 719.5C752.855 718.167 751.855 715.333 751.855 711C751.855 709 752.522 707.167 753.855 705.5C755.189 703.5 757.189 702.333 759.855 702C781.522 698.667 799.355 694.333 813.355 689C819.022 687.333 822.855 686.333 824.855 686H826.355C831.689 686 834.355 689.167 834.355 695.5V727H835.855C845.522 718 853.355 711.167 859.355 706.5C865.355 701.5 873.022 697.333 882.355 694C892.022 690.333 903.355 688.5 916.355 688.5C939.022 688.5 957.022 695.333 970.355 709C983.689 722.667 990.355 740.667 990.355 763V869.5C990.355 878.167 990.689 884.5 991.355 888.5C992.022 892.5 994.189 896 997.855 899C1001.52 902 1007.69 903.5 1016.36 903.5H1019.36C1022.02 903.5 1024.02 904 1025.36 905C1026.69 906 1027.52 908.5 1027.86 912.5C1027.86 915.167 1027.02 917.5 1025.36 919.5C1024.02 921.5 1022.19 922.5 1019.86 922.5C1000.52 921.5 983.022 921 967.355 921C952.355 921 935.022 921.5 915.355 922.5C913.022 922.5 911.022 921.5 909.355 919.5C908.022 917.5 907.355 915.167 907.355 912.5C907.689 908.167 908.522 905.667 909.855 905C911.522 904 914.522 903.5 918.855 903.5C927.522 903.5 933.689 902 937.355 899C941.022 896 943.189 892.5 943.855 888.5C944.522 884.5 944.855 878.167 944.855 869.5V763.5C944.855 748.167 940.022 736.5 930.355 728.5C920.689 720.167 909.522 716 896.855 716C881.522 716 868.355 719.833 857.355 727.5C846.355 734.833 838.855 742.5 834.855 750.5V869.5C834.855 878.167 835.189 884.5 835.855 888.5C836.522 892.5 838.689 896 842.355 899C846.022 902 852.189 903.5 860.855 903.5H863.855C866.522 903.5 868.522 904 869.855 905C871.189 906 872.022 908.5 872.355 912.5C872.355 915.167 871.689 917.5 870.355 919.5C869.022 921.5 867.022 922.5 864.355 922.5C845.022 921.5 827.522 921 811.855 921C796.855 921 779.522 921.5 759.855 922.5ZM1170.22 927C1145.22 927 1123.89 921.667 1106.22 911C1088.89 900.333 1075.72 885.833 1066.72 867.5C1057.72 849.167 1053.22 828.833 1053.22 806.5C1053.22 786.833 1057.72 768 1066.72 750C1076.05 731.667 1089.22 716.833 1106.22 705.5C1123.22 694.167 1142.72 688.5 1164.72 688.5C1194.39 688.5 1217.22 696.167 1233.22 711.5C1249.22 726.5 1258.39 746.833 1260.72 772.5C1260.72 783.5 1257.72 791 1251.72 795C1245.72 799 1237.05 801 1225.72 801H1104.22C1104.22 832 1110.55 856.667 1123.22 875C1136.22 893 1156.22 902 1183.22 902C1197.55 902 1209.72 899 1219.72 893C1229.72 886.667 1239.22 876.167 1248.22 861.5C1249.89 859.833 1251.55 859 1253.22 859C1255.55 859 1257.55 859.667 1259.22 861C1262.55 863 1264.22 866 1264.22 870C1264.22 872 1263.89 873.5 1263.22 874.5C1252.89 891.167 1239.72 904.167 1223.72 913.5C1208.05 922.5 1190.22 927 1170.22 927ZM1185.72 782C1202.72 782 1211.72 775 1212.72 761C1212.72 745.667 1208.55 732.667 1200.22 722C1191.89 711.333 1180.05 706 1164.72 706C1147.72 706 1133.72 712.833 1122.72 726.5C1111.72 739.833 1105.55 758.333 1104.22 782H1185.72Z" fill="black"/>
</svg>
